<?xml version="1.0" ?>

<!-- Uploaded to: SVG Repo, www.svgrepo.com, Generator: SVG Repo Mixer Tools -->
<svg fill="#000000" width="800px" height="800px" viewBox="0 0 512 512" enable-background="new 0 0 512 512" id="Layer_1" version="1.1" xml:space="preserve" xmlns="http://www.w3.org/2000/svg" xmlns:xlink="http://www.w3.org/1999/xlink">

<g>

<path d="M485.193,16.349H107.864c-3.843,0-7.426,2.069-9.389,5.439L65.869,78.853c-1.91,3.334-1.91,7.473,0.018,10.808   c1.927,3.323,5.516,5.392,9.359,5.392h113.857c-0.266,0.851-0.266,50.963,0.077,51.921h-85.337   c-8.242,0-14.952,6.704-14.952,14.958v36.679c0,8.253,6.71,14.958,14.952,14.958h181.984c8.248,0,14.958-6.704,14.958-14.958   v-36.679c0-8.253-6.71-14.958-14.958-14.958h-79.708c0.343-0.958,0.343-51.07,0.077-51.921h160.942v400.599H385.3v-67.174   l42.379,42.379v24.796h18.162V95.052h39.352c5.96,0,10.807-4.848,10.807-10.819V27.156C496,21.197,491.152,16.349,485.193,16.349z    M282.623,195.406H107.054v-30.27h175.569V195.406z M385.3,153.76l34.527,34.527L385.3,222.815V153.76z M385.3,243.697   l34.527,34.527L385.3,312.751V243.697z M400.547,233.256l27.131-27.131v54.262L400.547,233.256z M427.679,170.45l-27.131-27.131   l27.131-27.131V170.45z M374.161,76.89l34.303-34.303l34.291,34.303H374.161z M213.864,46.915l29.975,29.975h-59.95L213.864,46.915   z M166.3,68.802l-34.291-34.291h68.57L166.3,68.802z M227.143,34.511h68.576l-34.285,34.291L227.143,34.511z M308.997,46.915   l29.975,29.975h-59.944L308.997,46.915z M356.567,68.802l-34.285-34.291h68.576L356.567,68.802z M110.371,37.58   c0.443,1.058,38.335,39.31,38.335,39.31H87.91L110.371,37.58z M423.126,95.052L385.3,132.878V95.052H423.126z M385.3,333.627   l36.076,36.07L385.3,407.412V333.627z M427.679,445.167l-27.273-27.273l27.273-28.509V445.167z M400.547,323.192l27.131-27.131   v54.256L400.547,323.192z M477.838,76.89h-9.554c-0.13-0.148-42.219-42.379-42.219-42.379h51.773V76.89z"/>

<path d="M62.438,314.399c21.934,0,39.787-17.854,39.787-39.777c0-21.944-17.854-39.798-39.787-39.798s-39.777,17.854-39.777,39.798   C22.661,296.545,40.504,314.399,62.438,314.399z M62.438,256.641c9.907,0,17.971,8.075,17.971,17.982s-8.064,17.96-17.971,17.96   s-17.96-8.053-17.96-17.96S52.531,256.641,62.438,256.641z"/>

<path d="M151.005,313.603l-19.433,25.907l-21.846-5.463c-6.054-8.342-15.821-13.835-26.895-13.835H49.298   C30.934,320.212,16,335.147,16,353.51v43.005c0,4.257,1.407,7.248,14.107,16.176c0.709,6.397,1.715,21.509,2.477,33.037   c3.074,46.328,3.074,46.328,12.445,46.328h36.047c9.146,0,9.146,0,13.403-46.044c1.041-11.269,2.4-25.966,3.275-32.6   c15.987-8.596,18.375-11.564,18.375-16.897v-42.142l22.738,5.688l26.67-35.556c3.009-4.008,2.193-9.708-1.815-12.711   C159.708,308.778,154.014,309.594,151.005,313.603z M97.967,392.306c-2.584,1.62-6.681,3.949-10.5,6.007   c-6.858,0.367-7.213,4.269-11.074,46.032c-0.905,9.779-2.046,22.123-2.903,29.549H52.827c-0.668-7.449-1.478-19.676-2.122-29.36   c-2.708-40.842-3.027-45.678-9.483-46.245c-2.59-1.833-5.309-3.855-7.059-5.274V353.51c0-8.348,6.787-15.135,15.135-15.135h33.534   c8.342,0,15.135,6.787,15.135,15.135V392.306z"/>

</g>

</svg>