<?xml version="1.0" encoding="iso-8859-1"?>
<!-- Uploaded to: SVG Repo, www.svgrepo.com, Generator: SVG Repo Mixer Tools -->
<!DOCTYPE svg PUBLIC "-//W3C//DTD SVG 1.1//EN" "http://www.w3.org/Graphics/SVG/1.1/DTD/svg11.dtd">
<svg fill="#000000" height="800px" width="800px" version="1.1" id="Capa_1" xmlns="http://www.w3.org/2000/svg" xmlns:xlink="http://www.w3.org/1999/xlink" 
	 viewBox="0 0 441.716 441.716" xml:space="preserve">
<g>
	<path d="M336.942,142.299c-15.577,0-28.249,12.672-28.249,28.249s12.672,28.249,28.249,28.249s28.249-12.672,28.249-28.249
		S352.519,142.299,336.942,142.299z M336.942,187.797c-9.511,0-17.249-7.738-17.249-17.249s7.738-17.249,17.249-17.249
		s17.249,7.738,17.249,17.249S346.454,187.797,336.942,187.797z"/>
	<circle cx="336.943" cy="170.548" r="7.611"/>
	<path d="M66.792,324.909c-15.577,0-28.249,12.672-28.249,28.249s12.672,28.249,28.249,28.249s28.249-12.672,28.249-28.249
		S82.369,324.909,66.792,324.909z M66.792,370.407c-9.511,0-17.249-7.738-17.249-17.249s7.738-17.249,17.249-17.249
		s17.249,7.738,17.249,17.249S76.304,370.407,66.792,370.407z"/>
	<circle cx="66.792" cy="353.158" r="7.611"/>
	<path d="M145.096,32.84c-15.577,0-28.249,12.672-28.249,28.249s12.672,28.249,28.249,28.249s28.249-12.672,28.249-28.249
		S160.673,32.84,145.096,32.84z M145.096,78.338c-9.511,0-17.249-7.738-17.249-17.249s7.738-17.249,17.249-17.249
		s17.249,7.738,17.249,17.249S154.607,78.338,145.096,78.338z"/>
	<circle cx="145.096" cy="61.089" r="7.611"/>
	<path d="M270.1,321.079h-56.954c-3.038,0-5.5,2.462-5.5,5.5s2.462,5.5,5.5,5.5H270.1c3.038,0,5.5-2.462,5.5-5.5
		S273.137,321.079,270.1,321.079z"/>
	<path d="M270.1,348.369h-56.954c-3.038,0-5.5,2.462-5.5,5.5s2.462,5.5,5.5,5.5H270.1c3.038,0,5.5-2.462,5.5-5.5
		S273.137,348.369,270.1,348.369z"/>
	<path d="M270.1,375.66h-56.954c-3.038,0-5.5,2.462-5.5,5.5s2.462,5.5,5.5,5.5H270.1c3.038,0,5.5-2.462,5.5-5.5
		S273.137,375.66,270.1,375.66z"/>
	<path d="M426.968,125.299h-48.139V89.578c0-1.459-0.58-2.858-1.611-3.889L298.585,7.068c-1.031-1.031-2.43-1.611-3.889-1.611
		H96.864c-3.038,0-5.5,2.462-5.5,5.5v259.1H5.5c-3.038,0-5.5,2.462-5.5,5.5v155.201c0,3.038,2.462,5.5,5.5,5.5h307.315
		c3.038,0,5.5-2.462,5.5-5.5v-36.979h55.014c3.038,0,5.5-2.462,5.5-5.5V215.798h48.139c8.132,0,14.748-6.616,14.748-14.748v-61.002
		C441.716,131.915,435.101,125.299,426.968,125.299z M300.197,24.234l59.853,59.844h-59.853V24.234z M307.315,425.259H11V281.057
		h296.315V425.259z M367.829,382.779h-49.514V275.557c0-3.038-2.462-5.5-5.5-5.5H102.364v-253.6h186.833v73.121
		c0,3.038,2.462,5.5,5.5,5.5h73.132v30.221h-61.191c-8.132,0-14.748,6.616-14.748,14.748v61.002c0,8.132,6.616,14.748,14.748,14.748
		h61.191V382.779z M430.716,201.05c0,2.067-1.681,3.748-3.748,3.748h-120.33c-2.067,0-3.748-1.681-3.748-3.748v-61.002
		c0-2.067,1.681-3.748,3.748-3.748h120.33c2.067,0,3.748,1.681,3.748,3.748V201.05z"/>
	<path d="M412.485,155.556h-35.597c-3.038,0-5.5,2.462-5.5,5.5s2.462,5.5,5.5,5.5h35.597c3.038,0,5.5-2.462,5.5-5.5
		S415.523,155.556,412.485,155.556z"/>
	<path d="M412.485,174.54h-35.597c-3.038,0-5.5,2.462-5.5,5.5s2.462,5.5,5.5,5.5h35.597c3.038,0,5.5-2.462,5.5-5.5
		S415.523,174.54,412.485,174.54z"/>
	<path d="M55.065,260.45c0.668,2.37,2.831,4.007,5.293,4.007s4.625-1.637,5.293-4.007l10-35.466
		c0.137-0.486,0.207-0.988,0.207-1.493V36.958c0-3.038-2.462-5.5-5.5-5.5h-20c-3.038,0-5.5,2.462-5.5,5.5v186.534
		c0,0.505,0.069,1.007,0.207,1.493L55.065,260.45z M57.624,228.992h5.469l-2.735,9.699L57.624,228.992z M64.858,42.458v175.534h-9
		V42.458H64.858z"/>
	<path d="M5.5,264.458h20c3.038,0,5.5-2.462,5.5-5.5V72.424c0-0.505-0.069-1.007-0.207-1.493l-10-35.466
		c-0.668-2.37-2.831-4.007-5.293-4.007s-4.625,1.637-5.293,4.007l-10,35.466C0.069,71.417,0,71.919,0,72.424v186.534
		C0,261.995,2.462,264.458,5.5,264.458z M11,253.458V77.924h9v175.534H11z M18.235,66.924h-5.47l2.735-9.699L18.235,66.924z"/>
</g>
</svg>