<?xml version="1.0" encoding="utf-8"?>

<!DOCTYPE svg PUBLIC "-//W3C//DTD SVG 1.1//EN" "http://www.w3.org/Graphics/SVG/1.1/DTD/svg11.dtd">
<!-- Uploaded to: SVG Repo, www.svgrepo.com, Generator: SVG Repo Mixer Tools -->
<svg height="800px" width="800px" version="1.1" id="_x32_" xmlns="http://www.w3.org/2000/svg" xmlns:xlink="http://www.w3.org/1999/xlink" 
	 viewBox="0 0 512 512"  xml:space="preserve">
<style type="text/css">
	.st0{fill:#000000;}
</style>
<g>
	<path class="st0" d="M163.251,123.45V6.865L29.167,140.958h116.576C158.344,140.958,163.251,136.051,163.251,123.45z"/>
	<path class="st0" d="M485.348,180.234l-30.944-30.944c-5.39-5.391-14.118-5.382-19.508,0l-20.06,20.06l50.461,50.454l20.052-20.07
		C490.73,194.344,490.739,185.616,485.348,180.234z"/>
	<path class="st0" d="M192.6,457.286c-4.278,1.086-8.806-0.155-11.928-3.277c-3.122-3.122-4.372-7.659-3.285-11.937l29.021-114.239
		L364.873,169.35l12.704-12.695l28.09-28.099l4.251-4.243c1.484-1.484,3.165-2.674,4.796-3.941V22.683
		c0-12.506-10.185-22.683-22.7-22.683H189.176v139.052c0,15.343-12.48,27.832-27.814,27.832H22.612V489.3
		c0,12.514,10.185,22.7,22.7,22.7h346.703c12.514,0,22.7-10.185,22.7-22.7V320.33L306.831,428.231L192.6,457.286z"/>
	<path class="st0" d="M238.258,345.945l-17.189,67.65l67.642-17.206l167.401-167.418l-50.444-50.453L238.258,345.945z
		 M269.893,357.406l-11.462-11.462l145.857-145.858l11.471,11.471L269.893,357.406z"/>
</g>
</svg>