<?xml version="1.0" ?>

<!-- Uploaded to: SVG Repo, www.svgrepo.com, Generator: SVG Repo Mixer Tools -->
<svg fill="#000000" width="800px" height="800px" viewBox="0 0 512 512" enable-background="new 0 0 512 512" id="Layer_1" version="1.1" xml:space="preserve" xmlns="http://www.w3.org/2000/svg" xmlns:xlink="http://www.w3.org/1999/xlink">

<g>

<path d="M264.734,299.724h10.147l0.012,3.133c2.409,32.066,17.285,64.304,45.334,77.975c-3.602,7.382-9.933,13.072-18.003,15.564   c-7.975,2.457-39.453,9.363-39.453,9.363l0,0c-0.006,0-0.024,0.006-0.03,0.006l-0.024,0.006l0,0   c-4.7,1.038-44.289,10.77-48.936,43.281c-2.658,18.573-5.762,36.208-5.768,36.255c-0.469,2.646,0.267,5.376,1.994,7.441   c1.733,2.065,4.29,3.252,6.984,3.252h267.35c2.694,0,5.251-1.187,6.978-3.252c1.733-2.065,2.468-4.794,2-7.441   c-0.012-0.047-3.115-17.683-5.774-36.255c-4.652-32.6-44.456-42.296-48.983-43.293l0,0c0,0-31.478-6.907-39.453-9.363   c-7.844-2.421-14.093-7.856-17.896-15.487c28.173-13.648,43.12-46.081,45.559-78.741v-2.445h9.826c5.032,0,9.114-4.082,9.114-9.114   c0-5.032-4.082-9.114-9.114-9.114h-6.147l-0.718-7.215c-2.284-23.094-18.151-42.296-40.415-48.894l-10.443-3.097v-2.753   c0-5.032-4.082-9.114-9.114-9.114H331.72c-5.026,0-9.102,4.071-9.114,9.09l-0.006,2.73l-10.728,3.18   c-22.168,6.586-38.023,25.693-40.385,48.68l-0.76,7.393h-5.993c-5.038,0-9.114,4.082-9.114,9.114   C255.62,295.641,259.696,299.724,264.734,299.724z M286.19,419.229l14.906,58.542h-36.801v-53.57   C265.719,423.792,281.064,420.404,286.19,419.229z M231.826,451.639c1.234-8.651,7.423-14.917,14.241-19.332v45.464h-18.288   C228.918,470.865,230.431,461.383,231.826,451.639z M319.9,477.772l-16.003-62.88c1.341-0.374,7.981-2.593,10.01-3.542   l31.378,25.337c1.667,1.353,3.697,2.029,5.726,2.029c2.035,0,4.071-0.676,5.744-2.041l30.98-25.159   c1.928,0.884,8.396,3.014,9.755,3.388l-15.434,62.868H319.9z M437.032,424.202v53.57h-36.208l14.372-58.53   C420.311,420.41,435.614,423.792,437.032,424.202z M469.507,451.639c1.388,9.743,2.908,19.225,4.047,26.132H455.26v-45.458   C462.084,436.722,468.273,442.994,469.507,451.639z M372.485,400.419l-21.492,17.457l-21.973-17.748   c3.572-3.958,6.503-8.568,8.699-13.701c4.177,0.742,8.497,1.246,13.102,1.246c4.456,0,8.645-0.481,12.71-1.181   C365.714,391.679,368.746,396.373,372.485,400.419z M350.821,369.445c-36.362,0-55.207-34.131-57.723-67.277v-2.445h115.465   l0.006,1.756C406.022,335.314,387.177,369.445,350.821,369.445z M384.139,242.855c15.125,4.486,25.901,17.528,27.455,33.229   l0.534,5.412h-33.253v-40.201L384.139,242.855z M360.647,228.65v52.846h-19.943l0.113-52.846H360.647z M289.62,275.965   c1.602-15.618,12.378-28.601,27.438-33.075l5.501-1.632l-0.083,40.237H289.05L289.62,275.965z"/>

<path d="M22.958,17.895c-3.121,2.207-4.759,5.934-4.355,8.782l7.061,345.011l1.905,2.397c3.127,3.952,3.169,4.011,91.528,13.387   l-3.519,29.977c-0.552,4.711,1.507,9.328,5.376,12.046c12.508,8.77,26.358,13.203,39.026,13.114   c33.02-0.233,35.507-17.445,35.507-17.445S239.125,84.25,236.454,69.269c-2.396-13.435-12.888-23.403-25.112-28.185   C164.205,22.618,44.094,16.768,30.88,16.174C28.15,15.676,25.296,16.246,22.958,17.895z M178.036,417.829   c-8.966,9.316-27.663,8.687-43.975-1.507l35.187-299.689c0.142-1.151,0.801-1.78,1.335-2.112c0.504-0.309,1.549-0.736,2.937-0.237   c13.327,4.937,29.443,6.337,42.07,2.124L178.036,417.829z M204.696,58.055c9.411,3.691,12.809,11.781,14.223,16.199   c3.049,9.528-1.472,19.261-2.546,20.685c-4.462,5.981-20.21,8.283-36.528,2.255c-6.29-2.338-13.137-1.673-18.786,1.78   c-5.542,3.406-9.15,9.067-9.909,15.535l-29.93,254.854c-25.841-2.753-62.494-6.788-77.56-8.734L36.95,34.735   C65.675,36.278,165.302,42.627,204.696,58.055z"/>

</g>

</svg>